{
	"bufferViews":[{
		"buffer":0,
		"byteOffset":0,
		"byteLength":516,
		"target":34963
	},
	{
		"buffer":0,
		"byteOffset":516,
		"byteLength":2176,
		"target":34962,
		"byteStride":32
	},
	{
		"buffer":1,
		"byteOffset":0,
		"byteLength":2094,
		"target":34963
	},
	{
		"buffer":1,
		"byteOffset":2096,
		"byteLength":9408,
		"target":34962,
		"byteStride":32
	},
	{
		"buffer":2,
		"byteOffset":0,
		"byteLength":4848,
		"target":34963
	},
	{
		"buffer":2,
		"byteOffset":4848,
		"byteLength":17504,
		"target":34962,
		"byteStride":32
	},
	{
		"buffer":3,
		"byteOffset":0,
		"byteLength":6552,
		"target":34963
	},
	{
		"buffer":3,
		"byteOffset":6552,
		"byteLength":20128,
		"target":34962,
		"byteStride":32
	},
	{
		"buffer":4,
		"byteOffset":0,
		"byteLength":7344,
		"target":34963
	},
	{
		"buffer":4,
		"byteOffset":7344,
		"byteLength":21440,
		"target":34962,
		"byteStride":32
	}],
	"asset":{
		"version":"2.0",
		"generator":"Created using the official Cinema 4D glTF Exporter 1.000x284978"
	},
	"scenes":[{
		"nodes":[0,
		1,
		2,
		3,
		4]
	}],
	"nodes":[{
		"name":"ETIQUETTE",
		"mesh":0
	},
	{
		"name":"RUBAN",
		"mesh":1
	},
	{
		"name":"SCEAU",
		"mesh":2
	},
	{
		"name":"DOREE",
		"mesh":3
	},
	{
		"name":"VERRE",
		"mesh":4
	}],
	"meshes":[{
		"name":"ETIQUETTE",
		"primitives":[{
			"attributes":{
				"POSITION":1,
				"NORMAL":2,
				"TEXCOORD_0":3
			},
			"indices":0,
			"material":0
		}]
	},
	{
		"name":"RUBAN",
		"primitives":[{
			"attributes":{
				"POSITION":5,
				"NORMAL":6,
				"TEXCOORD_0":7
			},
			"indices":4,
			"material":0
		}]
	},
	{
		"name":"SCEAU",
		"primitives":[{
			"attributes":{
				"POSITION":9,
				"NORMAL":10,
				"TEXCOORD_0":11
			},
			"indices":8,
			"material":0
		}]
	},
	{
		"name":"DOREE",
		"primitives":[{
			"attributes":{
				"POSITION":13,
				"NORMAL":14,
				"TEXCOORD_0":15
			},
			"indices":12,
			"material":0
		}]
	},
	{
		"name":"VERRE",
		"primitives":[{
			"attributes":{
				"POSITION":17,
				"NORMAL":18,
				"TEXCOORD_0":19
			},
			"indices":16,
			"material":0
		}]
	}],
	"accessors":[{
		"bufferView":0,
		"type":"SCALAR",
		"componentType":5123,
		"count":258,
		"byteOffset":0,
		"min":[0],
		"max":[67]
	},
	{
		"bufferView":1,
		"type":"VEC3",
		"componentType":5126,
		"count":68,
		"byteOffset":0,
		"min":[-31.579792022705079,
		-116.19507598876953,
		21.09489631652832],
		"max":[32.700111389160159,
		-62.468807220458987,
		38.0313835144043]
	},
	{
		"bufferView":1,
		"type":"VEC3",
		"componentType":5126,
		"count":68,
		"byteOffset":12,
		"min":[-0.707072913646698,
		-0.0161359291523695,
		0.707059919834137],
		"max":[0.7070789933204651,
		0.01956215873360634,
		0.9999479055404663]
	},
	{
		"bufferView":1,
		"type":"VEC2",
		"componentType":5126,
		"count":68,
		"byteOffset":24,
		"min":[5.551115123125783e-17,
		2.220446049250313e-16],
		"max":[1.0,
		1.0]
	},
	{
		"bufferView":2,
		"type":"SCALAR",
		"componentType":5123,
		"count":1047,
		"byteOffset":0,
		"min":[0],
		"max":[293]
	},
	{
		"bufferView":3,
		"type":"VEC3",
		"componentType":5126,
		"count":294,
		"byteOffset":0,
		"min":[-29.076034545898439,
		-22.92390251159668,
		-24.844383239746095],
		"max":[29.076032638549806,
		46.238887786865237,
		34.521400451660159]
	},
	{
		"bufferView":3,
		"type":"VEC3",
		"componentType":5126,
		"count":294,
		"byteOffset":12,
		"min":[-0.9495391845703125,
		-0.8353783488273621,
		-0.9662351012229919],
		"max":[0.9499675035476685,
		0.4852065145969391,
		0.9821330904960632]
	},
	{
		"bufferView":3,
		"type":"VEC2",
		"componentType":5126,
		"count":294,
		"byteOffset":24,
		"min":[0.0,
		0.0],
		"max":[1.0,
		1.0]
	},
	{
		"bufferView":4,
		"type":"SCALAR",
		"componentType":5123,
		"count":2424,
		"byteOffset":0,
		"min":[0],
		"max":[546]
	},
	{
		"bufferView":5,
		"type":"VEC3",
		"componentType":5126,
		"count":547,
		"byteOffset":0,
		"min":[-11.76578426361084,
		19.706453323364259,
		17.73683738708496],
		"max":[11.76578426361084,
		42.88655471801758,
		28.22258186340332]
	},
	{
		"bufferView":5,
		"type":"VEC3",
		"componentType":5126,
		"count":547,
		"byteOffset":12,
		"min":[-1.0,
		-0.9992858171463013,
		-0.9985582828521729],
		"max":[0.997763991355896,
		0.9994171261787415,
		0.9960074424743652]
	},
	{
		"bufferView":5,
		"type":"VEC2",
		"componentType":5126,
		"count":547,
		"byteOffset":24,
		"min":[0.0,
		0.0],
		"max":[1.0,
		1.0]
	},
	{
		"bufferView":6,
		"type":"SCALAR",
		"componentType":5123,
		"count":3276,
		"byteOffset":0,
		"min":[0],
		"max":[628]
	},
	{
		"bufferView":7,
		"type":"VEC3",
		"componentType":5126,
		"count":629,
		"byteOffset":0,
		"min":[-21.351755142211915,
		22.609394073486329,
		-21.145076751708986],
		"max":[21.28862762451172,
		135.87303161621095,
		25.84019660949707]
	},
	{
		"bufferView":7,
		"type":"VEC3",
		"componentType":5126,
		"count":629,
		"byteOffset":12,
		"min":[-0.99994295835495,
		-0.7356000542640686,
		-0.9998419284820557],
		"max":[0.9979425668716431,
		0.9999175667762756,
		0.99994295835495]
	},
	{
		"bufferView":7,
		"type":"VEC2",
		"componentType":5126,
		"count":629,
		"byteOffset":24,
		"min":[0.0,
		0.0],
		"max":[1.0,
		0.9832531213760376]
	},
	{
		"bufferView":8,
		"type":"SCALAR",
		"componentType":5123,
		"count":3672,
		"byteOffset":0,
		"min":[0],
		"max":[669]
	},
	{
		"bufferView":9,
		"type":"VEC3",
		"componentType":5126,
		"count":670,
		"byteOffset":0,
		"min":[-37.51169967651367,
		-135.74794006347657,
		-37.51169967651367],
		"max":[37.51169967651367,
		36.91453552246094,
		37.51169967651367]
	},
	{
		"bufferView":9,
		"type":"VEC3",
		"componentType":5126,
		"count":670,
		"byteOffset":12,
		"min":[-0.9999926686286926,
		-0.9999567270278931,
		-0.9999926686286926],
		"max":[0.9977684020996094,
		0.31195634603500368,
		0.9999926686286926]
	},
	{
		"bufferView":9,
		"type":"VEC2",
		"componentType":5126,
		"count":670,
		"byteOffset":24,
		"min":[0.0,
		0.016746819019317628],
		"max":[1.0,
		1.0]
	}],
	"buffers":[{
		"uri":"data:application/octet-stream;base64,",
		"byteLength":2692
	},
	{
		"uri":"data:application/octet-stream;base64,",
		"byteLength":11504
	},
	{
		"uri":"data:application/octet-stream;base64,",
		"byteLength":22352
	},
	{
		"uri":"data:application/octet-stream;base64,",
		"byteLength":26680
	},
	{
		"uri":"data:application/octet-stream;base64,",
		"byteLength":28784
	}],
	"materials":[{
		"pbrMetallicRoughness":{
			"baseColorFactor":[1.0,
			1.0,
			1.0,
			1.0],
			"metallicFactor":1.0,
			"roughnessFactor":1.0
		},
		"emissiveFactor":[0.0,
		0.0,
		0.0],
		"alphaMode":"OPAQUE",
		"doubleSided":false,
		"name":"Mat"
	}]
}