<?xml version="1.0" encoding="UTF-8"?>
<svg width="16px" height="15px" viewBox="0 0 16 15" version="1.1" xmlns="http://www.w3.org/2000/svg" xmlns:xlink="http://www.w3.org/1999/xlink">
    <title>Group 2</title>
    <g id="Page-1" stroke="none" stroke-width="1" fill="none" fill-rule="evenodd">
        <g id="song-2" transform="translate(-1062.000000, -841.000000)">
            <g id="Group-2" transform="translate(1063.000000, 841.500000)">
                <rect id="Rectangle" stroke="#2C2E2B" stroke-width="1.5" x="0" y="2.5" width="14" height="9" rx="4"></rect>
                <path d="M10.9472136,0.894427191 L12.6381966,4.2763932 C12.7616912,4.52338245 12.6615791,4.82371897 12.4145898,4.9472136 C12.3451621,4.98192745 12.2686056,5 12.190983,5 L8.80901699,5 C8.53287462,5 8.30901699,4.77614237 8.30901699,4.5 C8.30901699,4.42237745 8.32708954,4.34582092 8.3618034,4.2763932 L10.0527864,0.894427191 C10.176281,0.647437942 10.4766175,0.547325769 10.7236068,0.670820393 C10.8203705,0.719202244 10.8988317,0.79766349 10.9472136,0.894427191 Z" id="Triangle-Copy" fill="#2C2E2B" transform="translate(10.500000, 2.500000) rotate(-270.000000) translate(-10.500000, -2.500000) "></path>
                <path d="M3.9472136,9.89442719 L5.6381966,13.2763932 C5.76169123,13.5233825 5.66157905,13.823719 5.4145898,13.9472136 C5.34516209,13.9819275 5.26860555,14 5.19098301,14 L1.80901699,14 C1.53287462,14 1.30901699,13.7761424 1.30901699,13.5 C1.30901699,13.4223775 1.32708954,13.3458209 1.3618034,13.2763932 L3.0527864,9.89442719 C3.17628103,9.64743794 3.47661755,9.54732577 3.7236068,9.67082039 C3.8203705,9.71920224 3.89883174,9.79766349 3.9472136,9.89442719 Z" id="Triangle-Copy-2" fill="#2C2E2B" transform="translate(3.500000, 11.500000) rotate(-90.000000) translate(-3.500000, -11.500000) "></path>
            </g>
        </g>
    </g>
</svg>