<?xml version="1.0" encoding="UTF-8"?>
<svg width="949px" height="697px" viewBox="0 0 949 697" version="1.1" xmlns="http://www.w3.org/2000/svg" xmlns:xlink="http://www.w3.org/1999/xlink">
    <title>Combined Shape</title>
    <g id="Page-1" stroke="none" stroke-width="1" fill="none" fill-rule="evenodd">
        <g id="tuto" transform="translate(-486.000000, -22.000000)" fill="#FFFFFF">
            <g id="Group-2" transform="translate(486.000000, 22.000000)">
                <path d="M949,0 L949,697 L0,697 L0,0 L949,0 Z M545.048813,372.204247 L427.289383,372.204247 L427.289383,605.538567 L545.048813,605.538567 L545.048813,372.204247 Z M780.025192,372.204247 L576.872299,372.204247 L576.872299,605.538567 L780.025192,605.538567 L780.025192,526.246117 L737.981857,526.246117 L737.981857,452.344749 L780.025192,452.344749 L780.025192,372.204247 Z M403.368607,372.204247 L168,372.204247 L285.684303,603.611778 L403.368607,372.204247 Z M354.004395,79 L235.803909,79 L235.803909,313.274818 L470.543228,313.274818 L470.543228,233.104477 L354.004395,233.104477 L354.004395,79 Z M613.718819,82.9387474 L496.784088,313.274818 L730.653549,313.274818 L613.718819,82.9387474 Z" id="Combined-Shape"></path>
            </g>
        </g>
    </g>
</svg>