<?xml version="1.0" encoding="UTF-8"?>
<svg width="58px" height="58px" viewBox="0 0 58 58" version="1.1" xmlns="http://www.w3.org/2000/svg" xmlns:xlink="http://www.w3.org/1999/xlink">
    <title>Group</title>
    <g id="Page-1" stroke="none" stroke-width="1" fill="none" fill-rule="evenodd">
        <g id="cover" transform="translate(-128.000000, -491.000000)">
            <g id="Group-3" transform="translate(106.000000, 491.000000)">
                <g id="Group" transform="translate(22.000000, 0.000000)">
                    <g id="393254_arrow_arrows_crossed_drag_line_icon" transform="translate(29.000000, 29.000000) scale(-1, 1) translate(-29.000000, -29.000000) " fill="#000000" fill-rule="nonzero">
                        <polygon id="path3037" points="29 0 24.1542128 10.8273641 27.1281886 10.8273641 27.1281886 27.1281886 10.8273641 27.1281886 10.8273641 24.1542128 0 29 10.8273641 33.8457872 10.8273641 30.8718114 27.1281886 30.8718114 27.1281886 47.1726359 24.1542128 47.1726359 29 58 33.8457872 47.1726359 30.8718114 47.1726359 30.8718114 30.8718114 47.1726359 30.8718114 47.1726359 33.8457872 58 29 47.1726359 24.1542128 47.1726359 27.1281886 30.8718114 27.1281886 30.8718114 10.8273641 33.8457872 10.8273641"></polygon>
                    </g>
                    <circle id="Oval" stroke="#000000" stroke-width="3" fill="#FFFFFF" cx="29" cy="29" r="6"></circle>
                </g>
            </g>
        </g>
    </g>
</svg>