<?xml version="1.0" encoding="UTF-8"?>
<svg width="29px" height="16px" viewBox="0 0 29 16" version="1.1" xmlns="http://www.w3.org/2000/svg" xmlns:xlink="http://www.w3.org/1999/xlink">
    <title>Group Copy</title>
    <g id="Page-1" stroke="none" stroke-width="1" fill="none" fill-rule="evenodd">
        <g id="song-2" transform="translate(-875.000000, -841.000000)" fill="#2C2E2B">
            <g id="Group-Copy" transform="translate(889.500000, 849.000000) rotate(-180.000000) translate(-889.500000, -849.000000) translate(875.000000, 841.000000)">
                <path d="M21.8944272,1.78885438 L28.2763932,14.5527864 C28.5233825,15.0467649 28.3231581,15.6474379 27.8291796,15.8944272 C27.6903242,15.9638549 27.5372111,16 27.381966,16 L14.618034,16 C14.0657492,16 13.618034,15.5522847 13.618034,15 C13.618034,14.8447549 13.6541791,14.6916418 13.7236068,14.5527864 L20.1055728,1.78885438 C20.3525621,1.29487588 20.9532351,1.09465154 21.4472136,1.34164079 C21.640741,1.43840449 21.7976635,1.59532698 21.8944272,1.78885438 Z" id="Triangle" transform="translate(21.000000, 8.000000) rotate(-270.000000) translate(-21.000000, -8.000000) "></path>
                <path d="M8.89442719,1.78885438 L15.2763932,14.5527864 C15.5233825,15.0467649 15.3231581,15.6474379 14.8291796,15.8944272 C14.6903242,15.9638549 14.5372111,16 14.381966,16 L1.61803399,16 C1.06574924,16 0.618033989,15.5522847 0.618033989,15 C0.618033989,14.8447549 0.654179081,14.6916418 0.723606798,14.5527864 L7.10557281,1.78885438 C7.35256206,1.29487588 7.9532351,1.09465154 8.4472136,1.34164079 C8.640741,1.43840449 8.79766349,1.59532698 8.89442719,1.78885438 Z" id="Triangle-Copy" transform="translate(8.000000, 8.000000) rotate(-270.000000) translate(-8.000000, -8.000000) "></path>
            </g>
        </g>
    </g>
</svg>