<?xml version="1.0" encoding="UTF-8"?>
<svg width="16px" height="12px" viewBox="0 0 16 12" version="1.1" xmlns="http://www.w3.org/2000/svg" xmlns:xlink="http://www.w3.org/1999/xlink">
    <title>Group 3</title>
    <g id="Page-1" stroke="none" stroke-width="1" fill="none" fill-rule="evenodd">
        <g id="song-2" transform="translate(-839.000000, -843.000000)">
            <g id="Group-3" transform="translate(839.997196, 843.000000)">
                <path d="M13.4500174,0.894427191 L14.6410004,3.2763932 C14.764495,3.52338245 14.6643829,3.82371897 14.4173936,3.9472136 C14.3479659,3.98192745 14.2714094,4 14.1937868,4 L11.8118208,4 C11.5356784,4 11.3118208,3.77614237 11.3118208,3.5 C11.3118208,3.42237745 11.3298933,3.34582092 11.3646072,3.2763932 L12.5555902,0.894427191 C12.6790848,0.647437942 12.9794214,0.547325769 13.2264106,0.670820393 C13.3231743,0.719202244 13.4016355,0.79766349 13.4500174,0.894427191 Z" id="Triangle-Copy" fill="#2C2E2B" transform="translate(13.002804, 2.000000) rotate(-270.000000) translate(-13.002804, -2.000000) "></path>
                <path d="M13.4500174,8.89442719 L14.6410004,11.2763932 C14.764495,11.5233825 14.6643829,11.823719 14.4173936,11.9472136 C14.3479659,11.9819275 14.2714094,12 14.1937868,12 L11.8118208,12 C11.5356784,12 11.3118208,11.7761424 11.3118208,11.5 C11.3118208,11.4223775 11.3298933,11.3458209 11.3646072,11.2763932 L12.5555902,8.89442719 C12.6790848,8.64743794 12.9794214,8.54732577 13.2264106,8.67082039 C13.3231743,8.71920224 13.4016355,8.79766349 13.4500174,8.89442719 Z" id="Triangle-Copy-3" fill="#2C2E2B" transform="translate(13.002804, 10.000000) rotate(-270.000000) translate(-13.002804, -10.000000) "></path>
                <path d="M0,2.05794525 C3.08970261,2.05794525 1.53020096,1.8752327 5.34963608,6 C9.1690712,10.1247673 8.48496246,10.0868827 12.8243523,10.0868827" id="Path-2" stroke="#2C2E2B" stroke-width="1.5" stroke-linecap="round"></path>
                <path d="M0.00280380249,2.00121014 C3.09250641,2.00121014 1.53300476,1.81849758 5.35243988,5.94326489 C9.171875,10.0680322 8.48776627,10.0301476 12.8271561,10.0301476" id="Path-2" stroke="#2C2E2B" stroke-width="1.5" stroke-linecap="round" transform="translate(6.414980, 6.015074) scale(1, -1) translate(-6.414980, -6.015074) "></path>
            </g>
        </g>
    </g>
</svg>