<?xml version="1.0" encoding="UTF-8"?>
<svg width="23px" height="17px" viewBox="0 0 23 17" version="1.1" xmlns="http://www.w3.org/2000/svg" xmlns:xlink="http://www.w3.org/1999/xlink">
    <title>2559760_media_social_video_youtube_icon</title>
    <g id="Page-1" stroke="none" stroke-width="1" fill="none" fill-rule="evenodd">
        <g id="song-1" transform="translate(-1648.000000, -895.000000)" fill="#000000" fill-rule="nonzero">
            <g id="Group" transform="translate(1644.758065, 888.000000)">
                <g id="2559760_media_social_video_youtube_icon" transform="translate(3.241935, 7.000000)">
                    <path d="M22.8,3.8 C22.8,3.6 22.5,2 21.8,1.3 C20.9,0.3 19.9,0.2 19.4,0.2 L19.3,0.2 C16.2,0 11.6,0 11.5,0 C11.5,0 6.8,0 3.7,0.2 L3.6,0.2 C3.1,0.2 2.1,0.3 1.2,1.3 C0.5,2.1 0.2,3.7 0.2,3.9 C0.2,4 0,5.8 0,7.7 L0,9.4 C0,11.3 0.2,13.1 0.2,13.2 C0.2,13.4 0.5,15 1.2,15.7 C2,16.6 3,16.7 3.6,16.8 C3.7,16.8 3.8,16.8 3.9,16.8 C5.7,17 11.2,17 11.4,17 C11.4,17 11.4,17 11.4,17 C11.4,17 16.1,17 19.2,16.8 L19.3,16.8 C19.8,16.7 20.8,16.6 21.7,15.7 C22.4,14.9 22.7,13.3 22.7,13.1 C22.7,13 22.9,11.2 22.9,9.3 L22.9,7.6 C23,5.8 22.8,3.9 22.8,3.8 Z M15.4,8.7 L9.4,11.9 C9.3,11.9 9.3,12 9.2,12 C9.1,12 9,12 9,11.9 C8.9,11.8 8.8,11.7 8.8,11.5 L8.8,5 C8.8,4.8 8.9,4.7 9,4.6 C9.1,4.5 9.3,4.5 9.5,4.6 L15.5,7.8 C15.7,7.9 15.8,8 15.8,8.2 C15.8,8.4 15.6,8.6 15.4,8.7 Z" id="Shape"></path>
                </g>
            </g>
        </g>
    </g>
</svg>