<?xml version="1.0" encoding="UTF-8"?>
<svg width="24px" height="24px" viewBox="0 0 24 24" version="1.1" xmlns="http://www.w3.org/2000/svg" xmlns:xlink="http://www.w3.org/1999/xlink">
    <title>3844430_magnifier_out_plus_search_zoom_icon</title>
    <g id="Page-1" stroke="none" stroke-width="1" fill="none" fill-rule="evenodd">
        <g id="cover-zoom" transform="translate(-1865.000000, -651.000000)" fill="#000000" fill-rule="nonzero">
            <g id="Group-2" transform="translate(1845.000000, 389.000000)">
                <g id="3844430_magnifier_out_plus_search_zoom_icon" transform="translate(20.000000, 262.000000)">
                    <path d="M23.414,20.586 L18.337,15.509 C19.386,13.928 20,12.035 20,10 C20,4.486 15.514,0 10,0 C4.486,0 0,4.486 0,10 C0,15.514 4.486,20 10,20 C12.035,20 13.928,19.386 15.509,18.337 L20.586,23.414 C21.366,24.195 22.634,24.195 23.414,23.414 C24.195,22.633 24.195,21.367 23.414,20.586 Z M3,10 C3,6.14 6.14,3 10,3 C13.86,3 17,6.14 17,10 C17,13.86 13.86,17 10,17 C6.14,17 3,13.86 3,10 Z" id="XMLID_232_"></path>
                    <path d="M15,10 C15,10.552 14.552,11 14,11 L6,11 C5.448,11 5,10.552 5,10 C5,9.448 5.448,9 6,9 L14,9 C14.552,9 15,9.448 15,10 Z" id="XMLID_235_"></path>
                </g>
            </g>
        </g>
    </g>
</svg>